<svg width="20" height="14" viewBox="0 0 20 14" fill="none" xmlns="http://www.w3.org/2000/svg">
<path d="M9.99998 4.5C9.33694 4.5 8.70105 4.76339 8.23221 5.23223C7.76337 5.70107 7.49998 6.33696 7.49998 7C7.49998 7.66304 7.76337 8.29893 8.23221 8.76777C8.70105 9.23661 9.33694 9.5 9.99998 9.5C10.663 9.5 11.2989 9.23661 11.7677 8.76777C12.2366 8.29893 12.5 7.66304 12.5 7C12.5 6.33696 12.2366 5.70107 11.7677 5.23223C11.2989 4.76339 10.663 4.5 9.99998 4.5ZM9.99998 11.1667C8.89491 11.1667 7.8351 10.7277 7.0537 9.94628C6.2723 9.16488 5.83331 8.10507 5.83331 7C5.83331 5.89493 6.2723 4.83512 7.0537 4.05372C7.8351 3.27232 8.89491 2.83333 9.99998 2.83333C11.105 2.83333 12.1649 3.27232 12.9463 4.05372C13.7277 4.83512 14.1666 5.89493 14.1666 7C14.1666 8.10507 13.7277 9.16488 12.9463 9.94628C12.1649 10.7277 11.105 11.1667 9.99998 11.1667ZM9.99998 0.75C5.83331 0.75 2.27498 3.34167 0.833313 7C2.27498 10.6583 5.83331 13.25 9.99998 13.25C14.1666 13.25 17.725 10.6583 19.1666 7C17.725 3.34167 14.1666 0.75 9.99998 0.75Z" fill="#26F07D" fill-opacity="0.6"/>
</svg>
