<svg width="20" height="20" viewBox="0 0 20 20" fill="none" xmlns="http://www.w3.org/2000/svg">
<path d="M4.37497 5.9375C4.37497 4.6943 4.86883 3.50201 5.74791 2.62294C6.62698 1.74386 7.81927 1.25 9.06247 1.25C10.3057 1.25 11.498 1.74386 12.377 2.62294C13.2561 3.50201 13.75 4.6943 13.75 5.9375C13.75 6.10326 13.6841 6.26223 13.5669 6.37944C13.4497 6.49665 13.2907 6.5625 13.125 6.5625C12.9592 6.5625 12.8002 6.49665 12.683 6.37944C12.5658 6.26223 12.5 6.10326 12.5 5.9375C12.5 5.02582 12.1378 4.15148 11.4931 3.50682C10.8485 2.86216 9.97415 2.5 9.06247 2.5C8.15079 2.5 7.27645 2.86216 6.63179 3.50682C5.98713 4.15148 5.62497 5.02582 5.62497 5.9375C5.62497 6.10326 5.55912 6.26223 5.44191 6.37944C5.3247 6.49665 5.16573 6.5625 4.99997 6.5625C4.83421 6.5625 4.67524 6.49665 4.55803 6.37944C4.44082 6.26223 4.37497 6.10326 4.37497 5.9375ZM15.3125 9.375C14.9479 9.3746 14.589 9.46566 14.2687 9.63984C14.173 9.34367 14.0152 9.07133 13.8058 8.84102C13.5965 8.61071 13.3403 8.42773 13.0546 8.30431C12.7689 8.18089 12.4601 8.11987 12.1489 8.12532C11.8377 8.13078 11.5312 8.20258 11.25 8.33594V5.9375C11.25 5.35734 11.0195 4.80094 10.6093 4.3907C10.199 3.98047 9.64263 3.75 9.06247 3.75C8.48231 3.75 7.92591 3.98047 7.51567 4.3907C7.10544 4.80094 6.87497 5.35734 6.87497 5.9375V12.1875L6.57653 11.7086C6.28469 11.2071 5.80557 10.842 5.24457 10.6937C4.68357 10.5455 4.08665 10.6261 3.58513 10.918C3.0836 11.2098 2.71854 11.6889 2.57027 12.2499C2.422 12.8109 2.50266 13.4078 2.7945 13.9094L5.08513 17.8156C5.12354 17.8917 5.17711 17.9591 5.24255 18.0137C5.30798 18.0683 5.38389 18.109 5.46561 18.1332C5.54734 18.1574 5.63314 18.1646 5.71776 18.1544C5.80238 18.1442 5.88402 18.1168 5.95766 18.0739C6.0313 18.031 6.09539 17.9735 6.14599 17.9049C6.19658 17.8364 6.23262 17.7581 6.25187 17.6751C6.27113 17.5921 6.2732 17.506 6.25796 17.4221C6.24272 17.3383 6.21049 17.2584 6.16325 17.1875L3.87497 13.2813C3.81073 13.1745 3.76839 13.0561 3.75043 12.9329C3.73247 12.8096 3.73926 12.684 3.77038 12.5634C3.80151 12.4428 3.85636 12.3296 3.93172 12.2304C4.00708 12.1313 4.10145 12.0481 4.20931 11.9858C4.31717 11.9236 4.43636 11.8834 4.55992 11.8677C4.68348 11.852 4.80893 11.861 4.92894 11.8944C5.04895 11.9277 5.16113 11.9846 5.2589 12.0617C5.35668 12.1389 5.4381 12.2348 5.49841 12.3438L5.50934 12.3617L6.96872 14.7055C7.04037 14.8211 7.14779 14.9102 7.27466 14.9592C7.40153 15.0082 7.54094 15.0145 7.67172 14.9772C7.80251 14.9398 7.91753 14.8608 7.99933 14.7521C8.08112 14.6434 8.12524 14.511 8.12497 14.375V5.9375C8.12497 5.68886 8.22374 5.4504 8.39956 5.27459C8.57537 5.09877 8.81383 5 9.06247 5C9.31111 5 9.54957 5.09877 9.72538 5.27459C9.9012 5.4504 9.99997 5.68886 9.99997 5.9375V11.25C9.99997 11.4158 10.0658 11.5747 10.183 11.6919C10.3002 11.8092 10.4592 11.875 10.625 11.875C10.7907 11.875 10.9497 11.8092 11.0669 11.6919C11.1841 11.5747 11.25 11.4158 11.25 11.25V10.3125C11.25 10.0639 11.3487 9.8254 11.5246 9.64959C11.7004 9.47377 11.9388 9.375 12.1875 9.375C12.4361 9.375 12.6746 9.47377 12.8504 9.64959C13.0262 9.8254 13.125 10.0639 13.125 10.3125V11.875C13.125 12.0408 13.1908 12.1997 13.308 12.3169C13.4252 12.4342 13.5842 12.5 13.75 12.5C13.9157 12.5 14.0747 12.4342 14.1919 12.3169C14.3091 12.1997 14.375 12.0408 14.375 11.875V11.5625C14.375 11.3139 14.4737 11.0754 14.6496 10.8996C14.8254 10.7238 15.0638 10.625 15.3125 10.625C15.5611 10.625 15.7996 10.7238 15.9754 10.8996C16.1512 11.0754 16.25 11.3139 16.25 11.5625V14.375C16.25 16.0633 15.6953 17.2109 15.6906 17.2203C15.6166 17.3686 15.6044 17.5402 15.6569 17.6974C15.7093 17.8546 15.8221 17.9845 15.9703 18.0586C16.057 18.1024 16.1528 18.1252 16.25 18.125C16.3661 18.1251 16.4799 18.0928 16.5787 18.0318C16.6775 17.9708 16.7574 17.8835 16.8093 17.7797C16.8383 17.7227 17.5007 16.3734 17.5007 14.375V11.5625C17.5007 11.2752 17.4441 10.9907 17.3342 10.7252C17.2242 10.4597 17.063 10.2186 16.8598 10.0154C16.6566 9.81229 16.4153 9.65118 16.1498 9.54129C15.8843 9.4314 15.5998 9.3749 15.3125 9.375Z" fill="#26F07D"/>
</svg>
