<svg width="20" height="20" viewBox="0 0 20 20" fill="none" xmlns="http://www.w3.org/2000/svg">
<path d="M10 3.33337C10.8841 3.33337 11.7319 3.68456 12.357 4.30968C12.9821 4.93481 13.3333 5.78265 13.3333 6.66671C13.3333 7.55076 12.9821 8.39861 12.357 9.02373C11.7319 9.64885 10.8841 10 10 10C9.11595 10 8.2681 9.64885 7.64298 9.02373C7.01786 8.39861 6.66667 7.55076 6.66667 6.66671C6.66667 5.78265 7.01786 4.93481 7.64298 4.30968C8.2681 3.68456 9.11595 3.33337 10 3.33337ZM10 11.6667C13.6833 11.6667 16.6667 13.1584 16.6667 15V16.6667H3.33333V15C3.33333 13.1584 6.31667 11.6667 10 11.6667Z" fill="#26F07D"/>
</svg>
