<svg width="20" height="20" viewBox="0 0 20 20" fill="none" xmlns="http://www.w3.org/2000/svg">
<path d="M15 10.8333C15.2361 10.8333 15.4342 10.7533 15.5942 10.5933C15.7542 10.4333 15.8339 10.2355 15.8333 9.99992C15.8328 9.76436 15.7528 9.56659 15.5933 9.40659C15.4339 9.24659 15.2361 9.16658 15 9.16658H12.5C12.2639 9.16658 12.0661 9.24659 11.9067 9.40659C11.7472 9.56659 11.6672 9.76436 11.6667 9.99992C11.6661 10.2355 11.7461 10.4335 11.9067 10.5941C12.0672 10.7546 12.265 10.8344 12.5 10.8333H15ZM15 8.33325C15.2361 8.33325 15.4342 8.25325 15.5942 8.09325C15.7542 7.93325 15.8339 7.73547 15.8333 7.49992C15.8328 7.26436 15.7528 7.06659 15.5933 6.90659C15.4339 6.74659 15.2361 6.66659 15 6.66659H12.5C12.2639 6.66659 12.0661 6.74659 11.9067 6.90659C11.7472 7.06659 11.6672 7.26436 11.6667 7.49992C11.6661 7.73547 11.7461 7.93353 11.9067 8.09409C12.0672 8.25464 12.265 8.33436 12.5 8.33325H15ZM7.5 10.8333C7 10.8333 6.54861 10.8785 6.14583 10.9691C5.74305 11.0596 5.38889 11.2019 5.08333 11.3958C4.79167 11.5763 4.56944 11.7813 4.41667 12.0108C4.26389 12.2402 4.1875 12.4866 4.1875 12.7499C4.1875 12.9166 4.25 13.0555 4.375 13.1666C4.5 13.2777 4.65278 13.3333 4.83333 13.3333H10.1667C10.3472 13.3333 10.5 13.2741 10.625 13.1558C10.75 13.0374 10.8125 12.8883 10.8125 12.7083C10.8125 12.4721 10.7361 12.243 10.5833 12.0208C10.4306 11.7985 10.2083 11.5902 9.91667 11.3958C9.61111 11.2013 9.25694 11.0588 8.85417 10.9683C8.45139 10.8777 8 10.8327 7.5 10.8333ZM7.5 9.99992C7.95833 9.99992 8.35055 9.83686 8.67667 9.51075C9.00278 9.18464 9.16611 8.79214 9.16667 8.33325C9.16722 7.87436 9.00417 7.48214 8.6775 7.15659C8.35083 6.83103 7.95833 6.6677 7.5 6.66659C7.04167 6.66547 6.64944 6.82881 6.32333 7.15659C5.99722 7.48436 5.83389 7.87659 5.83333 8.33325C5.83278 8.78992 5.99611 9.18242 6.32333 9.51075C6.65055 9.83909 7.04278 10.0021 7.5 9.99992ZM3.33333 16.6666C2.875 16.6666 2.48278 16.5035 2.15667 16.1774C1.83055 15.8513 1.66722 15.4588 1.66667 14.9999V4.99992C1.66667 4.54159 1.83 4.14936 2.15667 3.82325C2.48333 3.49714 2.87555 3.33381 3.33333 3.33325H16.6667C17.125 3.33325 17.5175 3.49659 17.8442 3.82325C18.1708 4.14992 18.3339 4.54214 18.3333 4.99992V14.9999C18.3333 15.4583 18.1703 15.8508 17.8442 16.1774C17.5181 16.5041 17.1256 16.6671 16.6667 16.6666H3.33333Z" fill="#26F07D"/>
</svg>
