<?xml version="1.0" encoding="UTF-8"?>
<svg version="1.1" xmlns="http://www.w3.org/2000/svg" width="373" height="777">
<path d="M0 0 C123.09 0 246.18 0 373 0 C373 256.41 373 512.82 373 777 C249.91 777 126.82 777 0 777 C0 520.59 0 264.18 0 0 Z " fill="#141946" transform="translate(0,0)"/>
<path d="M0 0 C1.58856812 0.01123901 1.58856812 0.01123901 3.20922852 0.02270508 C10.34680535 0.12123413 17.12303176 0.47281911 24.0625 2.25 C25.32320312 2.54519531 26.58390625 2.84039062 27.8828125 3.14453125 C55.41045168 10.07634495 79.27147336 28.1176043 94.0625 52.25 C103.96877905 69.17448022 109.49687171 87.51960875 109.3125 107.1875 C109.30500732 108.24654541 109.29751465 109.30559082 109.28979492 110.39672852 C109.19126587 117.53430535 108.83968089 124.31053176 107.0625 131.25 C106.76730469 132.51070312 106.47210938 133.77140625 106.16796875 135.0703125 C99.48381267 161.61445299 82.23891339 185.42049386 59.0859375 200.05322266 C34.16891686 214.79058211 5.25036809 220.36472554 -23.203125 214.22265625 C-51.63695299 206.81677427 -76.83143368 189.74658183 -91.9375 164.25 C-106.23960895 138.6700166 -111.76735721 108.89658601 -103.9375 80.25 C-95.38713451 51.46690152 -77.31691009 27.73329113 -51.05859375 13.03125 C-35.0961388 4.4835749 -18.14464286 -0.1700924 0 0 Z " fill="#161C48" transform="translate(184.9375,94.75)"/>
<path d="M0 0 C4.58262049 4.25529046 8.12242833 9.04639966 11.75 14.125 C12.33910156 14.93582031 12.92820313 15.74664062 13.53515625 16.58203125 C17.87059152 22.61177455 17.87059152 22.61177455 19 26 C15.7 26 12.4 26 9 26 C9 73.52 9 121.04 9 170 C-7.26532292 173.48542634 -7.26532292 173.48542634 -14.125 173.3125 C-14.8778125 173.303396 -15.630625 173.29429199 -16.40625 173.28491211 C-31.07801167 172.96099416 -31.07801167 172.96099416 -37 170 C-37 130.07 -37 90.14 -37 49 C-29 47 -29 47 -21 47 C-21 83.3 -21 119.6 -21 157 C-16.71 157 -12.42 157 -8 157 C-8 113.77 -8 70.54 -8 26 C-11.3 26 -14.6 26 -18 26 C-16.5379761 23.07595219 -15.18127626 20.69533073 -13.3203125 18.06640625 C-12.80339844 17.33486328 -12.28648437 16.60332031 -11.75390625 15.84960938 C-11.21636719 15.09486328 -10.67882812 14.34011719 -10.125 13.5625 C-9.59519531 12.81162109 -9.06539062 12.06074219 -8.51953125 11.28710938 C-5.78575183 7.43064883 -3.00585646 3.65204299 0 0 Z " fill="#04B568" transform="translate(200,117)"/>
<path d="M0 0 C1.58856812 0.01123901 1.58856812 0.01123901 3.20922852 0.02270508 C10.34680535 0.12123413 17.12303176 0.47281911 24.0625 2.25 C25.32320312 2.54519531 26.58390625 2.84039062 27.8828125 3.14453125 C55.41045168 10.07634495 79.27147336 28.1176043 94.0625 52.25 C103.96877905 69.17448022 109.49687171 87.51960875 109.3125 107.1875 C109.30500732 108.24654541 109.29751465 109.30559082 109.28979492 110.39672852 C109.19126587 117.53430535 108.83968089 124.31053176 107.0625 131.25 C106.76730469 132.51070312 106.47210938 133.77140625 106.16796875 135.0703125 C99.48381267 161.61445299 82.23891339 185.42049386 59.0859375 200.05322266 C34.16891686 214.79058211 5.25036809 220.36472554 -23.203125 214.22265625 C-51.63695299 206.81677427 -76.83143368 189.74658183 -91.9375 164.25 C-106.23960895 138.6700166 -111.76735721 108.89658601 -103.9375 80.25 C-95.38713451 51.46690152 -77.31691009 27.73329113 -51.05859375 13.03125 C-35.0961388 4.4835749 -18.14464286 -0.1700924 0 0 Z M-76.56640625 43.17578125 C-86.80194124 55.78198788 -94.48838365 70.3479694 -97.9375 86.25 C-98.15921875 87.09691406 -98.3809375 87.94382812 -98.609375 88.81640625 C-104.50328892 114.26377785 -97.34394484 141.44611169 -83.9375 163.25 C-81.76899167 166.40968267 -79.42821225 169.33979938 -76.9375 172.25 C-76.29425781 173.03761719 -75.65101562 173.82523438 -74.98828125 174.63671875 C-60.82498351 191.3132819 -41.37911962 202.95700978 -19.9375 207.25 C-19.17566406 207.42225098 -18.41382813 207.59450195 -17.62890625 207.77197266 C8.19454281 213.41833817 34.28637776 206.7860482 56.375 193 C78.22868344 178.62191736 94.49570184 155.88316363 100.0625 130.25 C100.28421875 129.4146875 100.5059375 128.579375 100.734375 127.71875 C106.37545955 103.62979436 100.18029108 77.2982011 88.0625 56.25 C73.84596417 34.0484055 52.08356545 16.2253049 26.15625 9.921875 C25.1353125 9.70015625 24.114375 9.4784375 23.0625 9.25 C22.2271875 9.02828125 21.391875 8.8065625 20.53125 8.578125 C-15.42305094 0.15844693 -52.68446955 16.5969245 -76.56640625 43.17578125 Z " fill="#F6F6F8" transform="translate(184.9375,94.75)"/>
<path d="M0 0 C16.19881701 4.04970425 30.76857939 19.63354453 39.15625 33.46484375 C47.06676575 47.19840336 51.20842549 61.51431977 51.0625 77.375 C51.041875 80.55125 51.02125 83.7275 51 87 C39.45 87 27.9 87 16 87 C16.15082031 91.3828125 16.30164063 95.765625 16.45703125 100.28125 C16.5407286 103.79250286 16.61118576 107.30347122 16.67275238 110.81515503 C16.74122127 114.51457153 16.83252684 118.21007199 16.98071289 121.90722656 C17.12275712 125.47377133 17.1998347 129.0365418 17.23340416 132.60569763 C17.26886883 134.6186512 17.37025394 136.6300972 17.47285461 138.64074707 C17.47591321 142.50543443 17.33968617 145.36874069 16 149 C11.29543128 153.30603388 6.06215036 155.97928321 0 158 C0 105.86 0 53.72 0 0 Z " fill="#04B869" transform="translate(222,124)"/>
<path d="M0 0 C0 52.47 0 104.94 0 159 C-3.77976044 157.48809583 -6.82157853 156.02637356 -10.25 153.9375 C-11.55710937 153.14666016 -11.55710937 153.14666016 -12.890625 152.33984375 C-15 151 -15 151 -16 150 C-16.09581822 148.46914161 -16.12188108 146.93386244 -16.12025452 145.40000916 C-16.12162918 144.40576431 -16.12300385 143.41151947 -16.12442017 142.387146 C-16.11902725 140.73745819 -16.11902725 140.73745819 -16.11352539 139.05444336 C-16.11367142 137.90337601 -16.11381744 136.75230865 -16.1139679 135.56636047 C-16.11326818 131.74083609 -16.10547302 127.91535969 -16.09765625 124.08984375 C-16.09579228 121.44568407 -16.09436828 118.80152404 -16.09336853 116.15736389 C-16.09025549 109.89584583 -16.08204248 103.63434514 -16.07201904 97.37283474 C-16.06085705 90.24598463 -16.05534724 83.1191337 -16.05032361 75.99227703 C-16.03985984 61.3281757 -16.02226093 46.66408809 -16 32 C-16.66 32 -17.32 32 -18 32 C-18.37705078 32.80824219 -18.37705078 32.80824219 -18.76171875 33.6328125 C-20.26657499 36.50960393 -22.03903756 39.15546487 -23.8125 41.875 C-29.66289938 51.14542878 -32.96333184 61.26120424 -35 72 C-40.28 72 -45.56 72 -51 72 C-48.71078666 49.94030785 -40.71831809 32.51963149 -25 17 C-24.1853125 16.18660156 -23.370625 15.37320313 -22.53125 14.53515625 C-7.2258547 0 -7.2258547 0 0 0 Z " fill="#F8F9FA" transform="translate(150,123)"/>
<path d="M0 0 C5.28 0 10.56 0 16 0 C17.63196132 5.71468809 18.27728439 10.73092167 18.1953125 16.65625 C18.1924826 17.44398804 18.18965271 18.23172607 18.18673706 19.04333496 C18.17565169 21.52905264 18.1505701 24.0143935 18.125 26.5 C18.1149551 28.19791142 18.10583191 29.89582855 18.09765625 31.59375 C18.07575071 35.72930914 18.04130326 39.86459096 18 44 C14.0875803 40.22454721 11.37781037 36.61947758 9 31.75 C8.48953125 30.71576904 8.48953125 30.71576904 7.96875 29.66064453 C5.52703787 24.52634361 3.61726917 19.3225176 2 13.875 C1.68869141 12.82844238 1.68869141 12.82844238 1.37109375 11.76074219 C0.20851037 7.55958861 0 4.48263498 0 0 Z " fill="#FBFBFC" transform="translate(99,211)"/>
<path d="M0 0 C10.27578696 10.27578696 19 24.99229637 19 40 C12.73 40 6.46 40 0 40 C0 26.8 0 13.6 0 0 Z " fill="#131E47" transform="translate(238,155)"/>
<path d="M0 0 C5.61 0 11.22 0 17 0 C15.11955003 13.16314981 7.5200993 25.97135444 -1 36 C-1.33 36 -1.66 36 -2 36 C-2.04969106 31.83741853 -2.08585642 27.67499739 -2.10986328 23.51220703 C-2.11987856 22.09811391 -2.13349474 20.68404127 -2.15087891 19.27001953 C-2.17532559 17.22944054 -2.18652784 15.18913697 -2.1953125 13.1484375 C-2.20578613 11.92302246 -2.21625977 10.69760742 -2.22705078 9.43505859 C-2 6 -2 6 0 0 Z " fill="#F7F7F8" transform="translate(253,224)"/>
<path d="M0 0 C-2.26294318 6.11997933 -5.20903015 11.50160846 -10 16 C-14.33858276 17.48411591 -18.44709857 17.77115046 -23 18 C-24.32 18.33 -25.64 18.66 -27 19 C-27 13.39 -27 7.78 -27 2 C-18.08489362 -0.641513 -9.20604186 -0.17875809 0 0 Z " fill="#F8F8F9" transform="translate(190,116)"/>
<path d="M0 0 C1.32 0 2.64 0 4 0 C4.66 2.97 5.32 5.94 6 9 C7.99097846 6.01353231 8.94124926 3.40312738 10 0 C11.32 0 12.64 0 14 0 C14.66 3.63 15.32 7.26 16 11 C16.66 11 17.32 11 18 11 C18.2165625 9.1128125 18.2165625 9.1128125 18.4375 7.1875 C18.73748686 4.57332877 19.15813297 2.52560108 20 0 C21.32 0 22.64 0 24 0 C23.29843593 7.15595346 21.69214979 14.01855181 20 21 C18.35 21 16.7 21 15 21 C14.01 17.04 13.02 13.08 12 9 C11.01 12.63 10.02 16.26 9 20 C7.35 20.33 5.7 20.66 4 21 C-0.40151515 6.22348485 -0.40151515 6.22348485 0 0 Z " fill="#E4E5E8" transform="translate(98,359)"/>
<path d="M0 0 C0.99386719 0.02707031 1.98773438 0.05414063 3.01171875 0.08203125 C4.15060547 0.13423828 4.15060547 0.13423828 5.3125 0.1875 C5.42863204 3.29135211 5.49972029 6.39464662 5.5625 9.5 C5.59601563 10.38107422 5.62953125 11.26214844 5.6640625 12.16992188 C5.76279375 18.66150184 5.76279375 18.66150184 3.5234375 21.27734375 C0.36616774 22.57706788 -2.3138593 22.43739931 -5.6875 22.1875 C-6.3475 21.8575 -7.0075 21.5275 -7.6875 21.1875 C-7.3575 20.1975 -7.0275 19.2075 -6.6875 18.1875 C-4.0475 18.1875 -1.4075 18.1875 1.3125 18.1875 C0.9825 17.5275 0.6525 16.8675 0.3125 16.1875 C-1.0796875 16.31125 -1.0796875 16.31125 -2.5 16.4375 C-5.6875 16.1875 -5.6875 16.1875 -7.5625 14.75 C-9.20668919 11.00490239 -9.44345176 7.2118314 -8.6875 3.1875 C-6.36220245 -0.32766553 -4.00610491 -0.14139194 0 0 Z " fill="#E7E7EA" transform="translate(262.6875,396.8125)"/>
<path d="M0 0 C1.65 0 3.3 0 5 0 C5 7.59 5 15.18 5 23 C1.37 23 -2.26 23 -6 23 C-9 20 -9 20 -9.3984375 17.625 C-9.39070312 16.75875 -9.38296875 15.8925 -9.375 15 C-9.38273438 14.13375 -9.39046875 13.2675 -9.3984375 12.375 C-8.92576336 9.55749138 -8.30541379 8.64979495 -6 7 C-2.8125 6.8125 -2.8125 6.8125 0 7 C0 4.69 0 2.38 0 0 Z " fill="#DEDFE3" transform="translate(232,357)"/>
<path d="M0 0 C16.7 0 16.7 0 22 1 C23.44207941 3.88415883 23.09394887 6.41721528 23.0625 9.625 C23.05347656 10.81351562 23.04445313 12.00203125 23.03515625 13.2265625 C23.02355469 14.14179688 23.01195313 15.05703125 23 16 C21.35 16 19.7 16 18 16 C18 11.71 18 7.42 18 3 C17.01 3.33 16.02 3.66 15 4 C14.67 7.96 14.34 11.92 14 16 C12.35 16 10.7 16 9 16 C8.67 12.04 8.34 8.08 8 4 C7.01 4 6.02 4 5 4 C4.67 7.96 4.34 11.92 4 16 C2.68 16 1.36 16 0 16 C0 10.72 0 5.44 0 0 Z " fill="#DCDDE1" transform="translate(80,397)"/>
<path d="M0 0 C1.32 0 2.64 0 4 0 C4 7.59 4 15.18 4 23 C0.37 23 -3.26 23 -7 23 C-10.17762583 18.76316556 -10.4996257 17.78330737 -10.28125 12.90625 C-9.86894101 10.11171131 -9.21442221 8.77153777 -7 7 C-3.8125 6.75 -3.8125 6.75 -1 7 C-0.67 4.69 -0.34 2.38 0 0 Z " fill="#DFE0E4" transform="translate(249,357)"/>
<path d="M0 0 C1.32 0 2.64 0 4 0 C4 2.31 4 4.62 4 7 C5.6396875 6.6596875 5.6396875 6.6596875 7.3125 6.3125 C11 6 11 6 12.70703125 7.16796875 C14.39557773 9.56050137 14.40097226 11.09110715 14.375 14 C14.38273438 14.86625 14.39046875 15.7325 14.3984375 16.625 C14 19 14 19 11 22 C7.37 22 3.74 22 0 22 C0 14.74 0 7.48 0 0 Z " fill="#EBECED" transform="translate(190,358)"/>
<path d="M0 0 C1.32 0 2.64 0 4 0 C4 7.26 4 14.52 4 22 C0.37 22 -3.26 22 -7 22 C-10 19 -10 19 -10.3984375 16.625 C-10.39070312 15.75875 -10.38296875 14.8925 -10.375 14 C-10.38273438 13.13375 -10.39046875 12.2675 -10.3984375 11.375 C-10 9 -10 9 -8.70703125 7.16796875 C-7 6 -7 6 -3.3125 6.3125 C-2.219375 6.539375 -1.12625 6.76625 0 7 C0 4.69 0 2.38 0 0 Z " fill="#EBEBED" transform="translate(187,391)"/>
<path d="M0 0 C1.32 0 2.64 0 4 0 C4.33 2.97 4.66 5.94 5 9 C5.66 9 6.32 9 7 9 C7.33 6.36 7.66 3.72 8 1 C9.32 0.67 10.64 0.34 12 0 C12.66 2.31 13.32 4.62 14 7 C14.33 7 14.66 7 15 7 C15.66 4.69 16.32 2.38 17 0 C18.32 0 19.64 0 21 0 C19.68 5.28 18.36 10.56 17 16 C15.68 16 14.36 16 13 16 C12.01 13.36 11.02 10.72 10 8 C9.01 10.64 8.02 13.28 7 16 C5.68 16 4.36 16 3 16 C2.49411853 14.08487728 1.99551609 12.16783078 1.5 10.25 C1.2215625 9.18265625 0.943125 8.1153125 0.65625 7.015625 C0 4 0 4 0 0 Z " fill="#E5E5E9" transform="translate(216,397)"/>
<path d="M0 0 C3.92928045 0.26639189 5.05015493 0.43952506 7.6875 3.25 C8.078125 6.38671875 8.078125 6.38671875 7.9375 9.9375 C7.90140625 11.11699219 7.8653125 12.29648437 7.828125 13.51171875 C7.75851563 14.86716797 7.75851563 14.86716797 7.6875 16.25 C5.72983719 16.33082094 3.77123272 16.38910778 1.8125 16.4375 C0.17667969 16.48970703 0.17667969 16.48970703 -1.4921875 16.54296875 C-2.42289063 16.44628906 -3.35359375 16.34960938 -4.3125 16.25 C-6.3125 13.25 -6.3125 13.25 -6.125 10.6875 C-5.3125 8.25 -5.3125 8.25 -2.3125 6.25 C0.375 6.125 0.375 6.125 2.6875 6.25 C2.3575 5.59 2.0275 4.93 1.6875 4.25 C0.6975 3.92 -0.2925 3.59 -1.3125 3.25 C-1.3125 3.91 -1.3125 4.57 -1.3125 5.25 C-2.9625 5.25 -4.6125 5.25 -6.3125 5.25 C-3.91515319 0.29548326 -3.91515319 0.29548326 0 0 Z " fill="#D7D8DE" transform="translate(244.3125,396.75)"/>
<path d="M0 0 C1.32 0 2.64 0 4 0 C4 2.64 4 5.28 4 8 C5.6396875 7.6596875 5.6396875 7.6596875 7.3125 7.3125 C11 7 11 7 12.71875 8.0625 C14.61798888 10.93451978 14.2884599 13.28851661 14.1875 16.6875 C14.16042969 17.86699219 14.13335937 19.04648437 14.10546875 20.26171875 C14.07066406 21.16535156 14.03585938 22.06898438 14 23 C12.35 23 10.7 23 9 23 C9 18.71 9 14.42 9 10 C7.68 10.33 6.36 10.66 5 11 C4.67 14.96 4.34 18.92 4 23 C2.68 23 1.36 23 0 23 C0 15.41 0 7.82 0 0 Z " fill="#E9E9EB" transform="translate(124,357)"/>
<path d="M0 0 C3.4375 0.5 3.4375 0.5 5.375 1.625 C6.88234863 4.285027 6.63736253 6.50206205 6.4375 9.5 C3.4675 9.5 0.4975 9.5 -2.5625 9.5 C-1.5725 10.985 -1.5725 10.985 -0.5625 12.5 C1.4175 12.17 3.3975 11.84 5.4375 11.5 C5.7675 12.82 6.0975 14.14 6.4375 15.5 C3.22197181 17.10776409 -0.08456 17.10485913 -3.5625 16.5 C-6.56243115 13.95005852 -7.41730459 12.37117244 -8.0625 8.5 C-7.18010721 3.20564326 -5.40516164 0.75861918 0 0 Z " fill="#E5E5E8" transform="translate(173.5625,363.5)"/>
<path d="M0 0 C2.4375 1.6875 2.4375 1.6875 4 4 C4 5.65 4 7.3 4 9 C0.7 9 -2.6 9 -6 9 C-5.01 10.485 -5.01 10.485 -4 12 C-2.02 11.67 -0.04 11.34 2 11 C2.33 12.32 2.66 13.64 3 15 C-0.11549872 16.55774936 -3.6044388 16.56480622 -7 16 C-8.73046875 14.796875 -8.73046875 14.796875 -10 13 C-10.3984375 10.625 -10.3984375 10.625 -10.375 8 C-10.38273437 7.13375 -10.39046875 6.2675 -10.3984375 5.375 C-9.40562938 -0.54291505 -5.29122795 -0.64979992 0 0 Z " fill="#E7E7EA" transform="translate(274,364)"/>
<path d="M0 0 C3.4375 0.5 3.4375 0.5 5.375 1.625 C6.88234863 4.285027 6.63736253 6.50206205 6.4375 9.5 C3.4675 9.5 0.4975 9.5 -2.5625 9.5 C-2.2325 10.49 -1.9025 11.48 -1.5625 12.5 C1.0775 12.5 3.7175 12.5 6.4375 12.5 C5.7775 13.82 5.1175 15.14 4.4375 16.5 C1.5794611 16.73816991 -0.76061145 16.92242213 -3.5625 16.5 C-6.56243115 13.95005852 -7.41730459 12.37117244 -8.0625 8.5 C-7.18010721 3.20564326 -5.40516164 0.75861918 0 0 Z " fill="#E7E8EA" transform="translate(200.5625,396.5)"/>
<path d="M0 0 C2.375 1.6875 2.375 1.6875 4 4 C4 5.65 4 7.3 4 9 C0.7 9 -2.6 9 -6 9 C-5.01 10.485 -5.01 10.485 -4 12 C-0.41642759 12.25015873 -0.41642759 12.25015873 3 12 C3 12.99 3 13.98 3 15 C-0.09173752 16.54586876 -2.59429552 16.29359521 -6 16 C-8.4375 14.5 -8.4375 14.5 -10 12 C-10.81004807 7.92470662 -10.65700312 5.01077404 -8.375 1.5 C-5.27859404 -0.45562482 -3.60146865 -0.60024477 0 0 Z " fill="#EBEBED" transform="translate(281,397)"/>
<path d="M0 0 C3.4375 0.5 3.4375 0.5 5.375 1.625 C6.88234863 4.285027 6.63736253 6.50206205 6.4375 9.5 C3.4675 9.5 0.4975 9.5 -2.5625 9.5 C-2.2325 10.49 -1.9025 11.48 -1.5625 12.5 C0.7475 12.5 3.0575 12.5 5.4375 12.5 C5.4375 13.49 5.4375 14.48 5.4375 15.5 C2.30889505 17.06430248 -0.11852925 16.85627284 -3.5625 16.5 C-6.49557135 13.94296344 -7.42347012 12.33417929 -8.0625 8.5 C-7.18010721 3.20564326 -5.40516164 0.75861918 0 0 Z " fill="#EAEAEC" transform="translate(147.5625,363.5)"/>
<path d="M0 0 C3.4375 0.5 3.4375 0.5 5.375 1.625 C6.88234863 4.285027 6.63736253 6.50206205 6.4375 9.5 C3.1375 9.5 -0.1625 9.5 -3.5625 9.5 C-2.5725 10.985 -2.5725 10.985 -1.5625 12.5 C2.02107241 12.75015873 2.02107241 12.75015873 5.4375 12.5 C5.4375 13.49 5.4375 14.48 5.4375 15.5 C2.38766004 17.02491998 -0.2048369 16.73562548 -3.5625 16.5 C-5.66608381 14.95737187 -6.40304159 13.81891683 -7.5625 11.5 C-7.9729525 7.80592747 -7.79017266 5.9189177 -6 2.625 C-3.5625 0.5 -3.5625 0.5 0 0 Z " fill="#ECECEE" transform="translate(128.5625,396.5)"/>
<path d="M0 0 C3.4375 0.5 3.4375 0.5 5.375 1.625 C6.88234863 4.285027 6.63736253 6.50206205 6.4375 9.5 C3.1375 9.5 -0.1625 9.5 -3.5625 9.5 C-2.5725 10.985 -2.5725 10.985 -1.5625 12.5 C2.02107241 12.75015873 2.02107241 12.75015873 5.4375 12.5 C5.4375 13.49 5.4375 14.48 5.4375 15.5 C2.30889505 17.06430248 -0.11852925 16.85627284 -3.5625 16.5 C-6.49557135 13.94296344 -7.42347012 12.33417929 -8.0625 8.5 C-7.18010721 3.20564326 -5.40516164 0.75861918 0 0 Z " fill="#EBEBED" transform="translate(112.5625,396.5)"/>
<path d="M0 0 C1.32 0 2.64 0 4 0 C4 4.29 4 8.58 4 13 C5.32 12.67 6.64 12.34 8 12 C8.33 8.04 8.66 4.08 9 0 C10.32 0 11.64 0 13 0 C13 5.28 13 10.56 13 16 C4.6015625 16.1953125 4.6015625 16.1953125 2 16 C0 14 0 14 -0.1953125 10.7421875 C-0.17210937 9.46601563 -0.14890625 8.18984375 -0.125 6.875 C-0.10695312 5.59367187 -0.08890625 4.31234375 -0.0703125 2.9921875 C-0.04710937 2.00476563 -0.02390625 1.01734375 0 0 Z " fill="#E8E8EB" transform="translate(207,364)"/>
<path d="M0 0 C3.5625 0.3125 3.5625 0.3125 5.5 1.6875 C6.5625 3.3125 6.5625 3.3125 6.5625 5.3125 C3.9225 4.9825 1.2825 4.6525 -1.4375 4.3125 C1.43728738 6.32529898 1.43728738 6.32529898 4.25 7.625 C6.5625 9.3125 6.5625 9.3125 7.0625 11.875 C6.5625 14.3125 6.5625 14.3125 3.5625 16.3125 C-2.76008065 16.7641129 -2.76008065 16.7641129 -6.4375 14.3125 C-6.4375 13.3225 -6.4375 12.3325 -6.4375 11.3125 C-5.1175 11.3125 -3.7975 11.3125 -2.4375 11.3125 C-2.4375 11.9725 -2.4375 12.6325 -2.4375 13.3125 C-0.7875 13.3125 0.8625 13.3125 2.5625 13.3125 C1.27752463 10.74254926 0.06337627 10.40815537 -2.5 9.1875 C-3.60021484 8.65769531 -3.60021484 8.65769531 -4.72265625 8.1171875 C-5.28855469 7.85164063 -5.85445312 7.58609375 -6.4375 7.3125 C-5.67266544 2.46854777 -5.30770607 0.48251873 0 0 Z " fill="#E2E3E6" transform="translate(160.4375,396.6875)"/>
<path d="M0 0 C3.5625 0.25 3.5625 0.25 6.5625 2.25 C6.5625 3.24 6.5625 4.23 6.5625 5.25 C5.2425 5.25 3.9225 5.25 2.5625 5.25 C2.5625 4.59 2.5625 3.93 2.5625 3.25 C1.2425 3.25 -0.0775 3.25 -1.4375 3.25 C-1.4375 4.24 -1.4375 5.23 -1.4375 6.25 C-0.32375 6.53875 0.79 6.8275 1.9375 7.125 C5.5625 8.25 5.5625 8.25 7.5625 10.25 C7.19568342 13.18453261 6.69812754 14.11437246 4.5625 16.25 C-2.60955692 16.81921087 -2.60955692 16.81921087 -5.4375 14.875 C-6.4375 13.25 -6.4375 13.25 -6.4375 11.25 C-3.41330475 11.83803797 -0.41991547 12.47678118 2.5625 13.25 C2.5625 12.26 2.5625 11.27 2.5625 10.25 C1.61375 10.12625 0.665 10.0025 -0.3125 9.875 C-3.4375 9.25 -3.4375 9.25 -5.4375 7.25 C-5.6875 4.75 -5.6875 4.75 -5.4375 2.25 C-3.4375 0.25 -3.4375 0.25 0 0 Z " fill="#E4E4E8" transform="translate(285.4375,363.75)"/>
<path d="M0 0 C3.5625 0.25 3.5625 0.25 6.5625 2.25 C6.5625 3.24 6.5625 4.23 6.5625 5.25 C5.2425 5.25 3.9225 5.25 2.5625 5.25 C2.5625 4.59 2.5625 3.93 2.5625 3.25 C1.2425 3.25 -0.0775 3.25 -1.4375 3.25 C-1.4375 4.24 -1.4375 5.23 -1.4375 6.25 C0.2640625 6.7140625 0.2640625 6.7140625 2 7.1875 C5.5625 8.25 5.5625 8.25 6.5625 9.25 C6.75 11.6875 6.75 11.6875 6.5625 14.25 C4.5625 16.25 4.5625 16.25 0.625 16.5625 C-2.10755991 16.49802944 -3.14632266 16.45018442 -5.4375 14.875 C-6.4375 13.25 -6.4375 13.25 -6.4375 11.25 C-3.41330475 11.83803797 -0.41991547 12.47678118 2.5625 13.25 C2.5625 12.26 2.5625 11.27 2.5625 10.25 C1.61375 10.12625 0.665 10.0025 -0.3125 9.875 C-3.4375 9.25 -3.4375 9.25 -5.4375 7.25 C-5.6875 4.75 -5.6875 4.75 -5.4375 2.25 C-3.4375 0.25 -3.4375 0.25 0 0 Z " fill="#E7E7EA" transform="translate(303.4375,396.75)"/>
<path d="M0 0 C1.65 0 3.3 0 5 0 C5 1.32 5 2.64 5 4 C5.66 4 6.32 4 7 4 C7 4.99 7 5.98 7 7 C6.34 7 5.68 7 5 7 C5 10.3 5 13.6 5 17 C5.66 17 6.32 17 7 17 C7 17.99 7 18.98 7 20 C4.625 20.125 4.625 20.125 2 20 C0 18 0 18 -0.1953125 15.3984375 C-0.17210937 14.40070313 -0.14890625 13.40296875 -0.125 12.375 C-0.10695312 11.37210937 -0.08890625 10.36921875 -0.0703125 9.3359375 C-0.04710937 8.56507813 -0.02390625 7.79421875 0 7 C-0.66 7 -1.32 7 -2 7 C-2 6.01 -2 5.02 -2 4 C-1.34 4 -0.68 4 0 4 C0 2.68 0 1.36 0 0 Z " fill="#DCDCE1" transform="translate(138,393)"/>
<path d="M0 0 C0.99 0 1.98 0 3 0 C3.107834 2.93847653 3.18721916 5.87301151 3.25 8.8125 C3.30027344 10.06256836 3.30027344 10.06256836 3.3515625 11.33789062 C3.45026152 17.48190433 3.45026152 17.48190433 1.2109375 20.05859375 C-1.94528762 21.40249879 -4.61242204 21.2509317 -8 21 C-8.66 20.67 -9.32 20.34 -10 20 C-9.505 18.515 -9.505 18.515 -9 17 C-6.36 17 -3.72 17 -1 17 C-0.67 15.68 -0.34 14.36 0 13 C-0.66 13 -1.32 13 -2 13 C-1.85966889 11.02043559 -1.7125877 9.04134859 -1.5625 7.0625 C-1.48128906 5.96035156 -1.40007812 4.85820312 -1.31640625 3.72265625 C-1 1 -1 1 0 0 Z " fill="#EDEDEF" transform="translate(265,398)"/>
<path d="M0 0 C1.32 0 2.64 0 4 0 C4 2.31 4 4.62 4 7 C4.66 7.33 5.32 7.66 6 8 C5.67 8.66 5.34 9.32 5 10 C4.9549714 11.66605828 4.96125079 13.33378384 5 15 C5.11111111 19.77777778 5.11111111 19.77777778 4 22 C2.68 22 1.36 22 0 22 C0 14.74 0 7.48 0 0 Z " fill="#EDEDEF" transform="translate(190,358)"/>
<path d="M0 0 C2.3431213 0.25561323 4.67843403 0.59270772 7 1 C8.44207941 3.88415883 8.09394887 6.41721528 8.0625 9.625 C8.05347656 10.81351562 8.04445313 12.00203125 8.03515625 13.2265625 C8.02355469 14.14179688 8.01195313 15.05703125 8 16 C6.35 16 4.7 16 3 16 C3 11.71 3 7.42 3 3 C1.68 3.33 0.36 3.66 -1 4 C-0.67 2.68 -0.34 1.36 0 0 Z " fill="#D9D9DF" transform="translate(95,397)"/>
<path d="M0 0 C2.3431213 0.25561323 4.67843403 0.59270772 7 1 C8.44207941 3.88415883 8.09394887 6.41721528 8.0625 9.625 C8.05347656 10.81351562 8.04445312 12.00203125 8.03515625 13.2265625 C8.02355469 14.14179688 8.01195312 15.05703125 8 16 C6.35 16 4.7 16 3 16 C3 11.71 3 7.42 3 3 C1.68 2.67 0.36 2.34 -1 2 C-0.67 1.34 -0.34 0.68 0 0 Z " fill="#DADADF" transform="translate(130,364)"/>
<path d="M0 0 C2.97 0 5.94 0 9 0 C9 1.32 9 2.64 9 4 C7.68 4.33 6.36 4.66 5 5 C4.67 8.63 4.34 12.26 4 16 C2.68 16 1.36 16 0 16 C0 10.72 0 5.44 0 0 Z " fill="#E6E7EA" transform="translate(157,364)"/>
<path d="M0 0 C2.97 0 5.94 0 9 0 C9 1.32 9 2.64 9 4 C7.68 4.33 6.36 4.66 5 5 C4.67 8.63 4.34 12.26 4 16 C2.68 16 1.36 16 0 16 C0 10.72 0 5.44 0 0 Z " fill="#ECECED" transform="translate(287,397)"/>
<path d="M0 0 C0.99 0 1.98 0 3 0 C3 7.26 3 14.52 3 22 C2.01 22 1.02 22 0 22 C0 21.34 0 20.68 0 20 C-0.66 20 -1.32 20 -2 20 C-1.34 13.4 -0.68 6.8 0 0 Z " fill="#F2F2F2" transform="translate(250,358)"/>
<path d="M0 0 C2.97 0.495 2.97 0.495 6 1 C5.67 1.99 5.34 2.98 5 4 C4.77674186 6.05893621 4.59294241 8.12233653 4.4375 10.1875 C4.35371094 11.27417969 4.26992187 12.36085938 4.18359375 13.48046875 C4.12300781 14.31191406 4.06242187 15.14335937 4 16 C2.68 16 1.36 16 0 16 C0 10.72 0 5.44 0 0 Z " fill="#F1F1F2" transform="translate(80,397)"/>
<path d="M0 0 C1.32 0 2.64 0 4 0 C4 5.28 4 10.56 4 16 C2.68 16 1.36 16 0 16 C0 10.72 0 5.44 0 0 Z " fill="#F3F3F3" transform="translate(170,397)"/>
<path d="M0 0 C1.32 0 2.64 0 4 0 C4 5.28 4 10.56 4 16 C2.68 16 1.36 16 0 16 C0 10.72 0 5.44 0 0 Z " fill="#ECECEE" transform="translate(257,364)"/>
<path d="M0 0 C1.32 0 2.64 0 4 0 C4 5.28 4 10.56 4 16 C3.01 16 2.02 16 1 16 C1 15.34 1 14.68 1 14 C0.34 14 -0.32 14 -1 14 C-0.67 9.38 -0.34 4.76 0 0 Z " fill="#F2F2F3" transform="translate(216,364)"/>
<path d="M0 0 C1.32 0 2.64 0 4 0 C5.4783226 2.95664519 5.06032783 5.74229737 5 9 C3.34385343 9.38218767 1.67542976 9.71395102 0 10 C-1 9 -1 9 -1.1328125 7.1875 C-1.13023437 6.465625 -1.12765625 5.74375 -1.125 5 C-1.12757813 4.278125 -1.13015625 3.55625 -1.1328125 2.8125 C-1 1 -1 1 0 0 Z " fill="#292E56" transform="translate(195,367)"/>
<path d="M0 0 C1.65 0.33 3.3 0.66 5 1 C5 3.64 5 6.28 5 9 C3.35 9.33 1.7 9.66 0 10 C-1.36952673 7.26094655 -1.12621361 5.02912668 -1 2 C-0.67 1.34 -0.34 0.68 0 0 Z " fill="#2C3058" transform="translate(182,400)"/>
<path d="M0 0 C2.125 0.375 2.125 0.375 4 1 C4 3.64 4 6.28 4 9 C2.125 9.625 2.125 9.625 0 10 C-2 8 -2 8 -2.25 5 C-2 2 -2 2 0 0 Z " fill="#1E234E" transform="translate(260,400)"/>
<path d="M0 0 C2.125 0.375 2.125 0.375 4 1 C4 3.64 4 6.28 4 9 C2.125 9.625 2.125 9.625 0 10 C-2 8 -2 8 -2.25 5 C-2 2 -2 2 0 0 Z " fill="#272C55" transform="translate(245,367)"/>
<path d="M0 0 C1.134375 0.020625 2.26875 0.04125 3.4375 0.0625 C2.4475 0.743125 2.4475 0.743125 1.4375 1.4375 C0.4475 2.241875 0.4475 2.241875 -0.5625 3.0625 C-0.5625 3.7225 -0.5625 4.3825 -0.5625 5.0625 C0.4275 5.7225 1.4175 6.3825 2.4375 7.0625 C2.4375 7.7225 2.4375 8.3825 2.4375 9.0625 C-0.4375 9.25 -0.4375 9.25 -3.5625 9.0625 C-5.5625 6.0625 -5.5625 6.0625 -5.25 3.4375 C-4.16890523 -0.29719104 -4.15169538 0.07283676 0 0 Z " fill="#EAEBED" transform="translate(243.5625,403.9375)"/>
<path d="M0 0 C1.32 0 2.64 0 4 0 C4 2.97 4 5.94 4 9 C2.68 9.33 1.36 9.66 0 10 C-1 9 -1 9 -1.1328125 7.1875 C-1.13023437 6.465625 -1.12765625 5.74375 -1.125 5 C-1.12757813 4.278125 -1.13015625 3.55625 -1.1328125 2.8125 C-1 1 -1 1 0 0 Z " fill="#222650" transform="translate(228,367)"/>
<path d="M0 0 C0.33 0 0.66 0 1 0 C1.3125 2.3125 1.3125 2.3125 1 5 C-1.1875 6.875 -1.1875 6.875 -4 8 C-6.8125 7.6875 -6.8125 7.6875 -9 7 C-9.33 6.01 -9.66 5.02 -10 4 C-6.7 4 -3.4 4 0 4 C0 2.68 0 1.36 0 0 Z " fill="#464A6D" transform="translate(119,402)"/>
<path d="M0 0 C0.33 0 0.66 0 1 0 C1.3125 2.8125 1.3125 2.8125 1 6 C-1.1875 7.9375 -1.1875 7.9375 -4 9 C-6.8125 8.6875 -6.8125 8.6875 -9 8 C-9 7.01 -9 6.02 -9 5 C-6.03 5 -3.06 5 0 5 C0 3.35 0 1.7 0 0 Z " fill="#484B6E" transform="translate(207,401)"/>
<path d="M0 0 C0.33 0 0.66 0 1 0 C1.3125 2.3125 1.3125 2.3125 1 5 C-1.1875 6.875 -1.1875 6.875 -4 8 C-6.8125 7.6875 -6.8125 7.6875 -9 7 C-9 6.01 -9 5.02 -9 4 C-6.03 4 -3.06 4 0 4 C0 2.68 0 1.36 0 0 Z " fill="#414569" transform="translate(154,369)"/>
<path d="M0 0 C0.33 0 0.66 0 1 0 C1 1.98 1 3.96 1 6 C0.01 6 -0.98 6 -2 6 C-2.33 6.99 -2.66 7.98 -3 9 C-4.65 8.67 -6.3 8.34 -8 8 C-8.33 7.01 -8.66 6.02 -9 5 C-6.03 5 -3.06 5 0 5 C0 3.35 0 1.7 0 0 Z " fill="#494D6F" transform="translate(180,368)"/>
<path d="M0 0 C3.3 0 6.6 0 10 0 C9.67 0.99 9.34 1.98 9 3 C6.69 3.33 4.38 3.66 2 4 C1.34 2.68 0.68 1.36 0 0 Z " fill="#393E63" transform="translate(275,406)"/>
<path d="M0 0 C3.3 0 6.6 0 10 0 C9.67 0.99 9.34 1.98 9 3 C6.69 3.33 4.38 3.66 2 4 C1.34 2.68 0.68 1.36 0 0 Z " fill="#3F4367" transform="translate(125,406)"/>
<path d="M0 0 C3.3 0 6.6 0 10 0 C9.01 0.33 8.02 0.66 7 1 C6.67 1.99 6.34 2.98 6 4 C4.35 3.67 2.7 3.34 1 3 C0.67 2.01 0.34 1.02 0 0 Z " fill="#383D62" transform="translate(268,373)"/>
<path d="M0 0 C1.65 0.33 3.3 0.66 5 1 C5 1.99 5 2.98 5 4 C3.02 4 1.04 4 -1 4 C-0.67 2.68 -0.34 1.36 0 0 Z " fill="#464A6C" transform="translate(276,400)"/>
<path d="M0 0 C1.32 0 2.64 0 4 0 C4.33 1.32 4.66 2.64 5 4 C3.02 4 1.04 4 -1 4 C-0.67 2.68 -0.34 1.36 0 0 Z " fill="#474B6D" transform="translate(269,367)"/>
<path d="M0 0 C1.32 0 2.64 0 4 0 C4.33 1.32 4.66 2.64 5 4 C3.02 4 1.04 4 -1 4 C-0.67 2.68 -0.34 1.36 0 0 Z " fill="#484C6E" transform="translate(172,367)"/>
<path d="M0 0 C1.9375 0.3125 1.9375 0.3125 4 1 C4.33 1.99 4.66 2.98 5 4 C3.02 4 1.04 4 -1 4 C-0.67 2.68 -0.34 1.36 0 0 Z " fill="#45496C" transform="translate(199,400)"/>
<path d="M0 0 C1.32 0.33 2.64 0.66 4 1 C4 1.99 4 2.98 4 4 C2.02 4 0.04 4 -2 4 C-1.34 2.68 -0.68 1.36 0 0 Z " fill="#44486B" transform="translate(127,400)"/>
<path d="M0 0 C1.98 0.495 1.98 0.495 4 1 C4 1.99 4 2.98 4 4 C2.35 4 0.7 4 -1 4 C-0.67 2.68 -0.34 1.36 0 0 Z " fill="#373C61" transform="translate(111,400)"/>
<path d="M0 0 C1.98 0.495 1.98 0.495 4 1 C4 1.99 4 2.98 4 4 C2.35 4 0.7 4 -1 4 C-0.67 2.68 -0.34 1.36 0 0 Z " fill="#373B61" transform="translate(146,367)"/>
<path d="M0 0 C1.32 0 2.64 0 4 0 C3.67 1.32 3.34 2.64 3 4 C1.68 3.67 0.36 3.34 -1 3 C-0.67 2.01 -0.34 1.02 0 0 Z " fill="#1F244F" transform="translate(243,406)"/>
<path d="M0 0 C1.98 0.495 1.98 0.495 4 1 C4 1.99 4 2.98 4 4 C2.35 3.67 0.7 3.34 -1 3 C-0.67 2.01 -0.34 1.02 0 0 Z " fill="#DEDFE3" transform="translate(257,358)"/>
</svg>
