<svg width="23" height="23" viewBox="0 0 23 23" fill="none" xmlns="http://www.w3.org/2000/svg">
<path d="M22.7344 0.279085C22.6049 0.150362 22.4413 0.0612389 22.2629 0.0221947C22.0844 -0.0168494 21.8985 -0.00419162 21.727 0.05868L0.619181 7.72495C0.437143 7.79392 0.28042 7.91656 0.169825 8.0766C0.0592309 8.23664 0 8.42649 0 8.62095C0 8.8154 0.0592309 9.00526 0.169825 9.1653C0.28042 9.32533 0.437143 9.44798 0.619181 9.51694L8.86083 12.8039L14.9437 6.70917L16.2965 8.06035L10.1849 14.1646L13.4854 22.3963C13.5565 22.5746 13.6795 22.7275 13.8386 22.8351C13.9977 22.9427 14.1855 23.0002 14.3776 23C14.5715 22.996 14.7597 22.9335 14.9172 22.8206C15.0748 22.7077 15.1944 22.5497 15.2603 22.3675L22.9359 1.28528C23.0013 1.11574 23.017 0.931131 22.9814 0.752979C22.9457 0.574828 22.86 0.410476 22.7344 0.279085Z" fill="#26F07D"/>
</svg>
