<svg width="25" height="24" viewBox="0 0 25 24" fill="none" xmlns="http://www.w3.org/2000/svg">
<path d="M17.875 13.5H16.375V10.5H17.875V13.5ZM20.375 4H17.375V2H15.375V4H9.375V2H7.375V4H4.375C3.275 4 2.375 4.9 2.375 6V18C2.375 19.1 3.275 20 4.375 20H20.375C21.475 20 22.375 19.1 22.375 18V6C22.375 4.9 21.475 4 20.375 4ZM9.875 11.5C9.875 12.05 9.425 12.5 8.875 12.5H6.875V13.5H9.875V15H5.375V12.5C5.375 11.95 5.825 11.5 6.375 11.5H8.375V10.5H5.375V9H8.875C9.425 9 9.875 9.45 9.875 10V11.5ZM13.125 18H11.625V16.5H13.125V18ZM13.125 14.5H11.625V13H13.125V14.5ZM13.125 11H11.625V9.5H13.125V11ZM13.125 7.5H11.625V6H13.125V7.5ZM19.375 14C19.375 14.55 18.925 15 18.375 15H15.875C15.325 15 14.875 14.55 14.875 14V10C14.875 9.45 15.325 9 15.875 9H18.375C18.925 9 19.375 9.45 19.375 10V14Z" fill="#9C9DA9"/>
</svg>
